<svg width="308" height="126" viewBox="0 0 308 126" fill="none" xmlns="http://www.w3.org/2000/svg">
<path d="M0 32.8059V126C0 126 51.3627 126 54.2982 126C90.8392 126 127.38 126 163.921 126C201.585 126 239.249 126 276.913 126C287.275 126 297.622 126 307.984 126C307.984 84.0053 308 42.0106 308 0C288.045 3.10541 268.668 10.4947 252.354 22.2952C236.025 34.0958 222.855 50.3873 215.749 69.1471C213.921 73.9565 212.477 78.973 209.654 83.2728C206.83 87.5725 202.275 91.1716 197.11 91.2672C191.127 91.3787 185.977 86.8081 183.042 81.6325C180.106 76.4568 178.791 70.5326 176.369 65.1021C169.937 50.6102 154.987 39.9244 139.042 39.59C129.048 39.383 119.119 43.4757 111.933 50.3076C103.351 58.4772 102.132 69.1153 98.988 79.9603C97.1433 86.2985 93.8228 93.3056 86.3478 93.7037C79.6748 94.0541 75.2475 89.8976 73.2424 83.8779C70.7882 76.5045 71.0448 69.4497 67.5159 62.1719C63.7944 54.5119 58.3084 47.3774 50.8815 42.9661C47.4969 40.9436 41.7703 37.5993 32.4506 35.752C27.5421 34.7806 22.6817 34.3825 14.5811 33.7614C10.202 33.4269 6.36821 33.204 3.40066 33.0766" fill="white" fill-opacity="0.1"/>
</svg>
